<?xml version="1.0" encoding="UTF-8" standalone="no"?>
<!-- Created with Inkscape (http://www.inkscape.org/) -->

<svg
   version="1.1"
   id="svg1"
   width="359.23874"
   height="472.51553"
   viewBox="0 0 359.23874 472.51553"
   sodipodi:docname="app-development.svg"
   inkscape:version="1.3.2 (091e20ef0f, 2023-11-25, custom)"
   xmlns:inkscape="http://www.inkscape.org/namespaces/inkscape"
   xmlns:sodipodi="http://sodipodi.sourceforge.net/DTD/sodipodi-0.dtd"
   xmlns="http://www.w3.org/2000/svg"
   xmlns:svg="http://www.w3.org/2000/svg">
  <defs
     id="defs1" />
  <sodipodi:namedview
     id="namedview1"
     pagecolor="#ffffff"
     bordercolor="#000000"
     borderopacity="0.25"
     inkscape:showpageshadow="2"
     inkscape:pageopacity="0.0"
     inkscape:pagecheckerboard="0"
     inkscape:deskcolor="#d1d1d1"
     inkscape:zoom="0.75958736"
     inkscape:cx="177.72808"
     inkscape:cy="315.96102"
     inkscape:window-width="1366"
     inkscape:window-height="724"
     inkscape:window-x="0"
     inkscape:window-y="20"
     inkscape:window-maximized="1"
     inkscape:current-layer="g1" />
  <g
     inkscape:groupmode="layer"
     inkscape:label="Image"
     id="g1"
     transform="translate(-208.86616,-23.688861)">
    <path
       style="fill:#414141;stroke-width:91.7879"
       d="m 230.56369,495.17467 c -4.57972,-1.12079 -11.52356,-4.71459 -11.57458,-5.99045 -0.0137,-0.34224 -1.68746,-2.43643 -3.71948,-4.65376 -7.05655,-7.70005 -6.54347,10.81911 -6.27282,-226.40808 0.22621,-198.276031 0.3503,-212.910901 1.83307,-216.185224 0.87474,-1.931642 3.07038,-5.073461 4.8792,-6.981819 1.80882,-1.908357 3.2924,-3.766264 3.29684,-4.128681 0.0179,-1.465116 8.26778,-5.31095 13.50626,-6.296227 4.00326,-0.752954 36.70186,-0.971446 115.43272,-0.771323 l 109.84728,0.279217 5.38369,2.643616 c 6.31696,3.101893 10.06806,6.758235 13.52344,13.181839 l 2.50378,4.654545 0.25589,68.654547 0.2559,68.65455 h -10.18703 c -5.60287,0 -10.84561,0.25272 -11.65054,0.5616 -1.31627,0.5051 -1.48782,-3.96676 -1.70522,-44.45091 L 455.93036,92.925596 344.454,92.689101 232.97763,92.452605 v 160.123905 160.1239 l 111.47637,-0.2365 111.47636,-0.23649 0.2816,-5.43357 c 0.2441,-4.71031 0.49194,-5.34107 1.86182,-4.73864 0.86911,0.38222 6.08349,0.88385 11.58749,1.11473 l 10.00727,0.4198 v 34.17169 c 0,38.36185 -0.24171,40.20525 -6.26239,47.76074 -2.35442,2.9546 -5.50015,5.4095 -9.54299,7.44727 l -6.03083,3.03979 -111.26372,0.16289 c -86.14416,0.12611 -112.33411,-0.0991 -116.00492,-0.99745 z m 143.84069,-31.83 c 2.38615,-2.00781 2.86416,-3.08268 2.86416,-6.44044 0,-3.57195 -0.35665,-4.25084 -3.13533,-5.96816 -2.98757,-1.84642 -4.40755,-1.93774 -30.12901,-1.93774 -25.89919,0 -27.09312,0.0782 -29.44648,1.92938 -3.41392,2.68539 -3.50123,9.20864 -0.16785,12.54202 l 2.28495,2.28496 h 27.43271 27.43271 z M 367.95945,65.194214 c 4.94004,-2.489949 4.4716,-12.747917 -0.67144,-14.703294 -1.23337,-0.468928 -11.45202,-0.852597 -22.70812,-0.852597 -16.65239,0 -20.98481,0.268484 -23.25212,1.440951 -5.48664,2.837254 -5.77602,10.31482 -0.52312,13.517823 2.66949,1.627748 4.8419,1.789699 23.88207,1.780387 14.97592,-0.0073 21.60874,-0.34456 23.27273,-1.18327 z"
       id="path1" />
    <path
       style="fill:#414141;stroke-width:91.7879"
       d="m 275.2474,194.59224 c -17.49385,-17.61583 -19.46463,-20.06506 -18.52576,-23.02319 0.34413,-1.08424 8.32389,-9.69239 17.73281,-19.12922 18.46596,-18.52073 19.91044,-19.42005 23.61925,-14.70505 1.06116,1.34904 1.92939,3.30839 1.92939,4.35411 0,1.20467 -5.11622,7.05608 -13.96364,15.9702 -7.68,7.7379 -13.96364,14.45401 -13.96364,14.92469 0,0.47068 6.28364,7.18679 13.96364,14.92469 15.00611,15.11924 15.98146,16.8333 11.80909,20.75304 -4.18272,3.92946 -5.60838,3.04198 -22.60114,-14.06927 z"
       id="path2" />
    <path
       style="fill:#414141;stroke-width:91.7879"
       d="m 316.25168,232.60427 c -2.38757,-2.38757 -2.87301,-5.45559 -1.43586,-9.07487 0.467,-1.17609 1.79027,-4.6518 2.9406,-7.7238 1.15034,-3.072 3.23262,-8.09891 4.62731,-11.17091 1.39468,-3.072 4.49968,-11.02417 6.9,-17.6715 2.40032,-6.64732 4.70728,-12.51205 5.12657,-13.03272 0.69587,-0.86415 4.71142,-11.0484 11.01765,-27.94305 1.33779,-3.584 2.93439,-7.35419 3.548,-8.37819 0.6136,-1.024 2.66629,-6.0509 4.56153,-11.1709 4.3776,-11.82612 4.6266,-12.268 7.85336,-13.93662 2.56025,-1.32396 2.81905,-1.26367 5.55786,1.29476 1.57991,1.47586 2.87257,3.14569 2.87257,3.71074 0,1.41981 -7.4811,21.73465 -8.44997,22.94579 -0.43204,0.54008 -2.71398,6.19535 -5.07099,12.56728 -6.59495,17.82875 -8.13052,21.74111 -8.96549,22.84249 -0.42413,0.55945 -3.28477,7.6809 -6.35698,15.82546 -3.07222,8.14455 -6.16494,15.85555 -6.87273,17.13555 -0.70779,1.28 -2.89016,6.72473 -4.84973,12.09941 -4.93155,13.52622 -8.21188,16.47291 -13.0037,11.68108 z"
       id="path3" />
    <path
       style="fill:#414141;stroke-width:91.7879"
       d="m 391.29974,208.23278 c -1.06116,-1.34904 -1.92938,-3.2297 -1.92938,-4.17923 0,-1.98902 5.35541,-8.0897 18.59019,-21.17723 5.1354,-5.07826 9.33708,-9.43526 9.33708,-9.68222 0,-0.24695 -6.08792,-6.66078 -13.52872,-14.25294 -7.4408,-7.59216 -13.77901,-14.8011 -14.0849,-16.01987 -0.72858,-2.90292 2.35116,-7.08034 5.49906,-7.45902 1.99216,-0.23965 5.0963,2.4807 19.45283,17.0477 9.39533,9.53307 17.42404,17.9433 17.84157,18.68939 0.41754,0.74609 0.52112,2.10651 0.2302,3.02314 -0.29093,0.91663 -8.2554,9.49581 -17.69883,19.06485 -18.54825,18.79496 -19.97407,19.69375 -23.7091,14.94543 z"
       id="path4" />
    <path
       style="fill:#414141;stroke-width:91.7879"
       d="m 462.5134,384.53287 c -1.96878,-1.74407 -2.62318,-3.68376 -3.91087,-11.59212 -1.52564,-9.36969 -1.58461,-9.50596 -4.37982,-10.11989 -1.55835,-0.34227 -6.32076,-2.08216 -10.58313,-3.86642 -7.24926,-3.03461 -7.8842,-3.14949 -9.83131,-1.77891 -11.32984,7.97509 -14.42698,9.90065 -15.9262,9.90164 -1.94381,10e-4 -17.00886,-14.24282 -17.84287,-16.87058 -0.47853,-1.50771 0.83225,-5.20302 2.27052,-6.40099 1.18285,-0.98522 8.47155,-11.97542 8.47155,-12.77374 0,-0.4628 -0.99519,-2.90967 -2.21152,-5.4375 -1.21634,-2.52782 -2.99671,-6.90003 -3.95637,-9.71603 -0.95966,-2.816 -2.12496,-5.39493 -2.58955,-5.73096 -0.46459,-0.33602 -4.549,-0.90414 -9.07647,-1.26247 -6.05979,-0.47961 -8.84579,-1.13451 -10.55893,-2.48207 -2.24989,-1.76977 -2.32716,-2.19923 -2.32716,-12.93389 0,-12.64684 0.75079,-14.25122 7.16262,-15.30588 1.94856,-0.32052 6.18858,-1.07697 9.42227,-1.68102 l 5.87944,-1.09826 2.29029,-6.83376 c 1.25966,-3.75857 3.14241,-8.50406 4.1839,-10.54554 l 1.89361,-3.71177 -6.18927,-7.60719 c -8.12328,-9.98427 -8.01789,-10.86475 2.52007,-21.05361 4.6548,-4.50059 8.52427,-7.49143 9.69591,-7.49429 1.07237,-0.003 3.16691,1.06053 4.65455,2.36254 1.48763,1.302 5.12051,3.85003 8.07305,5.66229 l 5.36826,3.295 7.66447,-3.27451 c 4.21545,-1.80099 8.80145,-3.55285 10.19111,-3.89302 1.38965,-0.34018 2.75163,-1.32739 3.02662,-2.19381 0.48515,-1.52858 2.27279,-14.27984 2.33072,-16.62506 0.0158,-0.64 0.86656,-2.00145 1.89056,-3.02545 1.65369,-1.65369 3.10303,-1.86182 12.96516,-1.86182 10.60413,0 11.18217,0.10021 12.85661,2.22891 1.06713,1.35664 2.20556,5.27292 2.90903,10.00727 1.59865,10.75899 1.59732,10.75622 5.51185,11.4872 1.90254,0.35527 6.41426,2.00971 10.02602,3.67652 4.52442,2.08798 7.13024,2.80343 8.37819,2.3003 0.99623,-0.40165 4.51477,-3.05941 7.819,-5.90614 3.92068,-3.37783 6.83831,-5.17588 8.39874,-5.17588 1.75735,0 4.42103,2.04058 10.0505,7.69945 9.52785,9.5776 9.62318,10.34932 2.58481,20.92417 l -5.07463,7.62443 2.62203,5.84688 c 1.44212,3.21579 3.34045,8.04616 4.21853,10.73416 0.87808,2.688 2.08649,4.88846 2.68534,4.8899 0.59885,10e-4 4.859,0.44395 9.467,0.98335 11.84036,1.38601 12.56727,2.29522 12.56727,15.71917 0,13.35801 -0.17489,13.56929 -12.99829,15.7025 l -9.7401,1.62029 -2.46709,6.95695 c -1.35689,3.82631 -3.19368,8.67974 -4.08176,10.78539 l -1.61469,3.82846 5.67642,7.65579 c 3.12204,4.21068 5.67642,8.41971 5.67642,9.35341 0,4.18272 -13.83587,17.92297 -18.04772,17.92297 -1.21657,0 -5.29862,-2.03954 -9.0712,-4.53233 -8.98333,-5.93585 -8.90093,-5.91255 -13.30605,-3.76167 -2.08627,1.01864 -6.30666,2.73942 -9.37866,3.82395 -3.072,1.08452 -6.05903,2.26591 -6.63784,2.62532 -0.5788,0.35939 -1.35693,4.32513 -1.72916,8.81273 -0.70411,8.48872 -2.13996,12.64669 -4.70743,13.63192 -0.82882,0.31805 -5.84786,0.57827 -11.15343,0.57827 -8.68261,0 -9.88276,-0.20929 -12.01092,-2.09455 z m 19.15422,-60.61196 c 21.00618,-4.94429 30.83691,-27.70332 20.65717,-47.82322 -3.48747,-6.89287 -14.25927,-15.143 -19.77149,-15.143 -1.01419,0 -2.10287,-0.41891 -2.4193,-0.93091 -0.71959,-1.16431 -11.09406,-1.22879 -13.27809,-0.0825 -0.88905,0.4666 -3.63203,1.55836 -6.09551,2.42612 -7.15356,2.51984 -11.66251,6.62685 -15.82333,14.41277 -3.18396,5.95798 -3.79474,8.03091 -4.16501,14.13577 -0.39795,6.56114 -0.18994,7.67528 2.5102,13.44536 3.93078,8.39988 8.32026,13.55535 14.12603,16.5911 7.90483,4.13333 15.40924,5.05162 24.25933,2.96854 z"
       id="path5" />
  </g>
</svg>
