<?xml version="1.0" encoding="UTF-8" standalone="no"?>
<!-- Created with Inkscape (http://www.inkscape.org/) -->

<svg
   version="1.1"
   id="svg1"
   width="512.00629"
   height="424.27621"
   viewBox="0 0 512.00629 424.27621"
   sodipodi:docname="briefcase.svg"
   inkscape:version="1.3.2 (091e20ef0f, 2023-11-25, custom)"
   xmlns:inkscape="http://www.inkscape.org/namespaces/inkscape"
   xmlns:sodipodi="http://sodipodi.sourceforge.net/DTD/sodipodi-0.dtd"
   xmlns="http://www.w3.org/2000/svg"
   xmlns:svg="http://www.w3.org/2000/svg">
  <defs
     id="defs1" />
  <sodipodi:namedview
     id="namedview1"
     pagecolor="#ffffff"
     bordercolor="#000000"
     borderopacity="0.25"
     inkscape:showpageshadow="2"
     inkscape:pageopacity="0.0"
     inkscape:pagecheckerboard="0"
     inkscape:deskcolor="#d1d1d1"
     inkscape:zoom="0.75958736"
     inkscape:cx="151.39799"
     inkscape:cy="209.32418"
     inkscape:window-width="1366"
     inkscape:window-height="724"
     inkscape:window-x="0"
     inkscape:window-y="20"
     inkscape:window-maximized="1"
     inkscape:current-layer="g1" />
  <g
     inkscape:groupmode="layer"
     inkscape:label="Image"
     id="g1"
     transform="translate(-91.279209,-42.236938)">
    <path
       style="fill:#414141;stroke-width:91.7879"
       d="m 127.58466,466.20903 c -14.29921,-2.5168 -25.08438,-10.71564 -30.961826,-23.53704 -1.582934,-3.45311 -2.976251,-8.3442 -3.256069,-11.43008 -0.269016,-2.96677 -0.848768,-5.61638 -1.288338,-5.88805 -0.43957,-0.27167 -0.799218,-33.75032 -0.799218,-74.39702 v -73.90307 l 2.356569,-4.47108 c 1.296114,-2.45909 3.051816,-4.99471 3.901561,-5.63471 2.837841,-2.13737 7.147261,-1.36052 11.570831,2.08585 2.29397,1.78722 6.65654,4.19514 9.69459,5.35094 l 5.52372,2.10145 89.6,0.26126 89.6,0.26126 v 17.75362 17.75362 l 3.16509,3.16509 3.16509,3.16509 h 37.42255 37.42255 l 3.16509,-3.16509 3.16509,-3.16509 v -17.75362 -17.75362 l 89.6,-0.26126 89.6,-0.26126 5.52372,-2.10145 c 3.03805,-1.1558 7.40062,-3.56372 9.69459,-5.35094 4.42357,-3.44637 8.73299,-4.22322 11.57083,-2.08585 0.84974,0.64 2.60545,3.17562 3.90156,5.63471 l 2.35657,4.47108 v 73.90307 c 0,40.6467 -0.35965,74.12535 -0.79921,74.39702 -0.43958,0.27167 -1.01933,2.92128 -1.28834,5.88805 -1.29439,14.27465 -12.78303,28.36923 -27.31469,33.51036 -4.29376,1.51907 -18.12404,1.62654 -224.27049,1.74264 -120.832,0.0681 -220.74182,-0.0606 -222.02182,-0.28588 z"
       id="path1" />
    <path
       style="fill:#414141;stroke-width:91.7879"
       d="m 128.51557,252.74288 c -18.93811,-2.57266 -33.209268,-16.8578 -35.125979,-35.16038 -0.283069,-2.70301 -0.873706,-5.13646 -1.312526,-5.40766 -1.043658,-0.64502 -1.042323,-63.42408 0.0014,-64.06911 0.439569,-0.27167 1.02302,-2.96209 1.296558,-5.9787 1.390236,-15.33177 14.260457,-30.19955 29.097397,-33.61354 3.06776,-0.70589 5.9757,-1.63491 6.4621,-2.06448 0.4864,-0.42957 26.14458,-0.78103 57.01818,-0.78103 h 56.13382 V 91.802394 c 0,-20.119786 2.53982,-27.66557 12.66537,-37.628674 5.45732,-5.369757 11.31857,-8.545775 19.20043,-10.404086 8.67465,-2.045224 137.98916,-2.042864 146.66533,0.0027 14.55729,3.432105 25.07501,12.981719 29.51898,26.801901 2.06514,6.42229 2.33535,8.872686 2.33535,21.178181 V 105.668 h 56.13382 c 30.8736,0 56.53178,0.35261 57.01818,0.78359 0.4864,0.43098 3.30785,1.30215 6.26989,1.93592 14.64204,3.13291 27.89902,18.40401 29.28961,33.73954 0.27353,3.01661 0.85698,5.70703 1.29656,5.9787 1.15665,0.71485 1.0279,63.43467 -0.1317,64.15134 -0.512,0.31643 -0.93091,2.05704 -0.93091,3.86803 0,10.25075 -7.6021,23.35997 -17.2036,29.66625 -11.89542,7.81295 -4.70488,7.28671 -104.51276,7.6487 l -88.66909,0.32158 v -6.51212 c 0,-8.00501 -1.05121,-10.45584 -5.57535,-12.99854 -3.41621,-1.92002 -4.56065,-1.97936 -38.17738,-1.97936 -33.61673,0 -34.76117,0.0593 -38.17738,1.97936 -4.51958,2.54015 -5.57535,4.99409 -5.57535,12.95899 v 6.47256 l -84.94545,-0.12206 c -46.72,-0.0671 -87.24946,-0.43506 -90.06546,-0.8176 z M 411.51194,94.497064 V 83.326155 h -64.23273 -64.23273 v 11.170909 11.170916 h 64.23273 64.23273 z"
       id="path2" />
  </g>
</svg>
