<?xml version="1.0" encoding="UTF-8" standalone="no"?>
<!-- Created with Inkscape (http://www.inkscape.org/) -->

<svg
   version="1.1"
   id="svg1"
   width="595.71063"
   height="594.05865"
   viewBox="0 0 595.71063 594.05865"
   sodipodi:docname="global.svg"
   inkscape:version="1.3.2 (091e20ef0f, 2023-11-25, custom)"
   xmlns:inkscape="http://www.inkscape.org/namespaces/inkscape"
   xmlns:sodipodi="http://sodipodi.sourceforge.net/DTD/sodipodi-0.dtd"
   xmlns="http://www.w3.org/2000/svg"
   xmlns:svg="http://www.w3.org/2000/svg">
  <defs
     id="defs1" />
  <sodipodi:namedview
     id="namedview1"
     pagecolor="#ffffff"
     bordercolor="#000000"
     borderopacity="0.25"
     inkscape:showpageshadow="2"
     inkscape:pageopacity="0.0"
     inkscape:pagecheckerboard="0"
     inkscape:deskcolor="#d1d1d1"
     inkscape:zoom="0.45878094"
     inkscape:cx="119.88292"
     inkscape:cy="510.04734"
     inkscape:window-width="1366"
     inkscape:window-height="724"
     inkscape:window-x="0"
     inkscape:window-y="20"
     inkscape:window-maximized="1"
     inkscape:current-layer="g1" />
  <g
     inkscape:groupmode="layer"
     inkscape:label="Image"
     id="g1"
     transform="translate(-240.00083,-3.1762649)">
    <path
       style="fill:#414141;stroke-width:107.459"
       d="m 306.80821,488.61373 c -4.7e-4,-0.49951 -1.78083,-2.86993 -3.95636,-5.26758 -2.17552,-2.39766 -6.68175,-8.52804 -10.01384,-13.62306 -3.33209,-5.09503 -6.47309,-9.54838 -6.98002,-9.89636 -1.16003,-0.7963 -5.50489,-8.43825 -9.24463,-16.25992 -1.57627,-3.29678 -4.11958,-7.95586 -5.65179,-10.35352 -5.31795,-8.32171 -18.71171,-44.12697 -22.6263,-60.48639 -3.66719,-15.32553 -6.65256,-34.7277 -7.56695,-49.17828 L 240.0183,311.6956 h 62.82119 c 59.09517,0 62.82243,0.11312 62.8421,1.90723 0.0774,7.06094 2.36822,43.15879 3.33707,52.58501 2.48739,24.20021 8.3956,59.71889 10.78651,64.84576 0.95997,2.05848 6.56256,24.80569 6.56256,26.64482 0,0.47244 -3.06519,1.68971 -6.81153,2.70504 -12.57956,3.40927 -34.02747,10.683 -37.32719,12.65893 -1.79824,1.07683 -5.72168,2.93683 -8.71876,4.13337 -2.99707,1.19653 -9.86309,4.28827 -15.25782,6.87054 -5.39473,2.58226 -10.17643,4.87066 -10.62599,5.08533 -0.44956,0.21467 -0.81777,-0.0184 -0.81823,-0.5179 z"
       id="path1" />
    <path
       style="fill:#414141;stroke-width:107.459"
       d="m 406.23812,438.31431 c -1.87313,-7.69702 -4.69761,-21.06648 -6.27664,-29.70993 -1.57902,-8.64344 -3.32244,-16.69621 -3.87426,-17.89504 -1.72373,-3.7448 -5.37077,-39.43185 -6.09787,-59.669 l -0.69504,-19.34474 h 68.28677 68.28677 v 63.09769 63.0977 l -16.07521,0.78808 c -17.91151,0.87811 -22.94132,1.41631 -56.94438,6.09325 -14.8282,2.03954 -37.66267,5.91067 -41.4919,7.03412 -1.3816,0.40535 -2.37073,-2.20208 -5.11824,-13.49213 z"
       id="path2" />
    <path
       style="fill:#414141;stroke-width:107.459"
       d="m 449.0338,585.38354 c -2.99707,-1.00054 -6.43009,-2.35697 -7.62891,-3.01429 -1.19883,-0.65732 -4.14141,-1.81535 -6.53907,-2.5734 -7.94947,-2.51334 -28.23195,-10.95863 -29.93237,-12.46335 -0.92022,-0.81431 -4.12528,-2.65854 -7.12235,-4.09828 -8.50577,-4.08602 -20.59399,-10.98699 -21.7969,-12.44349 -0.59941,-0.72577 -5.33594,-4.03332 -10.52562,-7.35011 -5.18968,-3.31678 -9.77512,-6.57958 -10.18987,-7.25066 -0.41475,-0.67109 -2.78946,-2.68165 -5.27713,-4.46791 -6.65652,-4.7797 -25.83562,-22.87462 -25.24982,-23.82247 0.90702,-1.46758 17.07645,-8.92426 28.8312,-13.29577 6.33204,-2.35484 13.47451,-5.17899 15.87217,-6.27588 2.39766,-1.0969 8.83089,-3.21291 14.29606,-4.70225 l 9.93668,-2.70789 1.708,3.93879 c 0.93939,2.16633 3.73555,9.33352 6.21369,15.92708 4.22584,11.24368 20.21866,41.99878 23.97148,46.09852 0.93373,1.02006 3.98645,5.28766 6.7838,9.48356 2.79736,4.19591 9.27523,12.44707 14.39529,18.33593 5.12005,5.88886 9.58974,11.16098 9.93266,11.71583 0.85945,1.39062 -1.27864,1.10273 -7.67899,-1.03396 z"
       id="path3" />
    <path
       style="fill:#414141;stroke-width:107.459"
       d="m 513.65327,594.05382 c -5.21948,-1.70378 -12.33072,-4.69788 -15.80275,-6.65356 -8.77668,-4.94361 -23.60631,-17.31659 -30.99149,-25.8575 -3.40819,-3.94154 -6.97401,-7.60144 -7.92405,-8.13311 -0.95004,-0.53167 -1.72735,-1.35503 -1.72735,-1.82969 0,-0.47466 -3.7328,-6.45806 -8.29511,-13.29644 -8.16028,-12.23131 -23.26532,-41.5517 -27.46001,-53.30261 -1.17684,-3.29678 -2.47572,-6.80583 -2.88639,-7.79789 -0.5815,-1.40473 0.0539,-1.96122 2.87221,-2.51562 1.99039,-0.39153 4.59974,-1.14069 5.79857,-1.6648 7.56953,-3.30925 52.28075,-8.56127 87.46004,-10.27353 l 11.17091,-0.54371 v 67.52478 c 0,53.31548 -0.28667,67.51602 -1.3623,67.48312 -0.74927,-0.0229 -5.63279,-1.43567 -10.85228,-3.13944 z"
       id="path4" />
    <path
       style="fill:#414141;stroke-width:107.459"
       d="m 549.84444,529.71014 v -67.52478 l 11.17091,0.54371 c 35.17929,1.71226 79.89051,6.96428 87.46004,10.27353 1.19883,0.52411 3.80819,1.27327 5.79857,1.6648 2.81834,0.5544 3.45372,1.11089 2.87221,2.51562 -0.41066,0.99206 -1.70954,4.50111 -2.88639,7.79789 -4.19469,11.75091 -19.29973,41.0713 -27.46,53.30261 -4.56232,6.83838 -8.29512,12.82178 -8.29512,13.29644 0,0.47466 -0.77901,1.29897 -1.73112,1.8318 -0.95211,0.53283 -4.75295,4.44047 -8.4463,8.68364 -8.01126,9.20388 -21.8816,20.57212 -31.4209,25.75281 -5.97711,3.24611 -23.00433,9.38671 -26.02832,9.38671 -0.64043,0 -1.03358,-25.68515 -1.03358,-67.52478 z"
       id="path5" />
    <path
       style="fill:#414141;stroke-width:107.459"
       d="m 655.01446,450.01156 c -5.39474,-1.11028 -18.39113,-3.23106 -28.88089,-4.71283 -36.21628,-5.11587 -41.58986,-5.70662 -60.21392,-6.61966 l -16.07521,-0.78808 v -63.0977 -63.09769 h 68.28677 68.28677 l -0.69503,19.34474 c -0.7271,20.23715 -4.37415,55.9242 -6.09788,59.669 -0.55182,1.19883 -2.29524,9.2516 -3.87426,17.89504 -3.29171,18.01858 -9.37647,43.74245 -10.3022,43.55353 -0.34405,-0.0702 -5.03942,-1.03608 -10.43415,-2.14635 z"
       id="path6" />
    <path
       style="fill:#414141;stroke-width:107.459"
       d="m 766.12413,488.37261 c -0.56945,-0.53224 -6.6753,-3.50494 -13.56857,-6.60602 -6.89327,-3.10107 -15.47579,-7.03638 -19.07228,-8.74511 -6.48333,-3.08033 -24.22108,-9.08583 -37.32718,-12.63796 -3.74635,-1.01535 -6.81153,-2.23266 -6.81153,-2.7051 0,-1.83913 5.60258,-24.58634 6.56255,-26.64482 2.39092,-5.12687 8.29913,-40.64555 10.78651,-64.84576 0.96885,-9.42622 3.25964,-45.52407 3.33707,-52.58501 0.0197,-1.79411 3.74693,-1.90723 62.8421,-1.90723 h 62.82119 l -0.75002,11.85302 c -1.44567,22.8466 -8.47251,58.74759 -13.7852,70.43026 -0.54517,1.19883 -2.44483,6.10313 -4.22147,10.89844 -5.58368,15.07086 -9.37679,24.22532 -10.69659,25.81557 -0.70098,0.84464 -3.25325,5.43549 -5.67169,10.20188 -5.90494,11.63777 -9.60014,18.16686 -10.71472,18.93196 -0.50692,0.34798 -3.64793,4.80133 -6.98002,9.89636 -3.33209,5.09502 -7.83832,11.2254 -10.01384,13.62306 -2.17553,2.39765 -3.95589,4.7272 -3.95636,5.17676 -10e-4,1.11252 -1.51648,1.03059 -2.77995,-0.1503 z"
       id="path7" />
    <path
       style="fill:#414141;stroke-width:107.459"
       d="m 619.70998,585.51909 c 0.80971,-1.04897 4.70033,-5.58545 8.64581,-10.08106 7.94611,-9.05407 17.39499,-21.21491 17.39499,-22.38763 0,-0.41595 1.36986,-2.31647 3.04414,-4.22337 4.7437,-5.40278 21.42337,-37.03559 25.90745,-49.13321 2.22178,-5.99415 4.81912,-12.63136 5.77187,-14.74936 l 1.73226,-3.85091 8.7458,2.37245 c 8.76267,2.37702 13.39086,3.93088 17.46455,5.86351 1.19883,0.56874 7.36045,2.95147 13.69248,5.29495 11.71397,4.33533 27.91717,11.79619 28.83152,13.27565 0.62422,1.01 -16.52487,17.30437 -24.18984,22.9842 -3.10334,2.29961 -5.98277,4.7318 -6.39875,5.40486 -0.41597,0.67307 -4.98812,3.92367 -10.16032,7.22356 -5.1722,3.29989 -9.89443,6.60181 -10.49385,7.33759 -0.59941,0.73578 -6.97501,4.43872 -14.16798,8.22877 -7.19298,3.79005 -13.83444,7.53374 -14.75881,8.31932 -1.72065,1.46229 -16.73028,7.80246 -26.86975,11.34997 -3.11503,1.08986 -7.28369,2.70552 -9.26368,3.59035 -4.22707,1.88903 -13.89078,5.08759 -15.37096,5.08759 -0.56603,0 -0.36665,-0.85825 0.44307,-1.90723 z"
       id="path8" />
    <path
       style="fill:#414141;stroke-width:107.459"
       d="m 709.60902,276.00318 c -2.59087,-50.45172 -6.86859,-80.73419 -16.89625,-119.61046 -1.85535,-7.19297 -3.16461,-13.63323 -2.90947,-14.31168 0.25513,-0.67845 3.07627,-1.84887 6.26918,-2.60094 10.42812,-2.45626 35.10442,-11.11199 40.76845,-14.3004 3.04554,-1.7144 6.08434,-3.11709 6.75289,-3.11709 0.66854,0 6.63666,-2.59935 13.26247,-5.77633 6.62582,-3.17698 12.04694,-5.41245 12.04694,-4.96772 0,0.44474 2.37542,3.52313 5.27871,6.84088 2.90329,3.31776 7.1404,9.10885 9.41581,12.8691 2.27541,3.76025 4.70004,7.32725 5.38805,7.92667 1.6316,1.42148 6.03389,9.05163 11.05247,19.15637 2.20979,4.44936 4.67162,8.84265 5.47072,9.76287 1.49469,1.72124 9.98676,22.17148 12.42957,29.93237 0.75469,2.39766 2.34909,6.54382 3.54312,9.21369 5.20216,11.63211 12.11792,47.5074 13.50803,70.07252 l 0.72175,11.71583 h -62.72241 -62.72241 z"
       id="path9" />
    <path
       style="fill:#414141;stroke-width:107.459"
       d="m 549.84444,225.05294 v -63.75592 h 11.54443 c 13.09691,0 36.14863,-1.79036 41.85796,-3.25099 2.09795,-0.53673 10.19005,-1.77698 17.98244,-2.75612 7.79239,-0.97915 20.52845,-2.97068 28.30236,-4.42564 7.77391,-1.45496 14.71797,-2.64538 15.43127,-2.64538 1.46239,0 6.48513,19.87692 10.74041,42.50394 1.52181,8.0921 3.22328,16.1842 3.78102,17.98244 2.52766,8.14951 6.57674,50.19926 6.58523,68.38776 l 0.005,11.71583 h -68.1153 -68.11529 z"
       id="path10" />
    <path
       style="fill:#414141;stroke-width:107.459"
       d="m 549.84444,70.294986 c 0,-76.8198828 -1.44725,-68.7458985 11.60103,-64.7206583 10.85618,3.3490032 18.13278,7.3390863 29.86934,16.3786883 12.67169,9.759836 23.08668,21.412232 35.06684,39.233119 14.63407,21.768648 33.58926,62.441195 29.66682,63.656715 -0.86841,0.26911 -2.43719,0.78904 -3.48616,1.15539 -12.09104,4.22273 -72.35611,11.3222 -96.11057,11.3222 h -6.6073 z"
       id="path11" />
    <path
       style="fill:#414141;stroke-width:107.459"
       d="m 680.35335,115.42833 c -1.04898,-1.84303 -1.90723,-3.85056 -1.90723,-4.46118 0,-2.47041 -10.42132,-27.040716 -14.70843,-34.678018 -2.52355,-4.495609 -5.93459,-10.625986 -7.58007,-13.623059 -1.64548,-2.997073 -4.28859,-7.165729 -5.87358,-9.26368 -1.58499,-2.097951 -4.74511,-6.604275 -7.02249,-10.014053 -2.27738,-3.409777 -9.01964,-11.869696 -14.98279,-18.799822 -5.96316,-6.930124 -10.69082,-12.600226 -10.50591,-12.600226 1.12856,0 12.36665,3.631535 13.26502,4.286527 0.59942,0.437028 5.01329,2.181206 9.8086,3.875951 15.3331,5.418976 26.04115,9.967967 30.3256,12.88291 2.29312,1.56014 5.2357,3.168552 6.53906,3.574249 2.67344,0.832159 19.51261,10.280781 20.35219,11.419815 0.29971,0.4066 4.79506,3.475093 9.98966,6.818874 5.1946,3.34378 10.34412,7.030119 11.44337,8.191863 1.09925,1.161744 4.45079,3.963742 7.44786,6.226663 6.88673,5.199778 24.52151,21.234126 24.52151,22.296074 0,1.120613 -14.556,8.092124 -26.06956,12.485862 -5.3169,2.02901 -11.86954,4.69243 -14.56141,5.91872 -3.92134,1.78638 -26.4587,8.84793 -28.1508,8.82039 -0.23286,-0.004 -1.28163,-1.51483 -2.3306,-3.35786 z"
       id="path12" />
    <path
       style="fill:#414141;stroke-width:107.459"
       d="m 494.26236,136.10698 c -23.95565,-1.73224 -63.03346,-7.28722 -71.11237,-10.10874 -1.04898,-0.36635 -2.61775,-0.88628 -3.48617,-1.15539 -3.92244,-1.21552 15.03276,-41.888067 29.66682,-63.656715 C 461.3108,43.365248 471.7258,31.712852 484.39748,21.953016 496.13405,12.913414 503.41065,8.9233309 514.26682,5.5743277 527.3151,1.5490875 525.86785,-6.5248968 525.86785,70.294986 v 67.025454 l -9.53614,-0.15358 c -5.24488,-0.0845 -15.17609,-0.56141 -22.06935,-1.05988 z"
       id="path13" />
    <path
       style="fill:#414141;stroke-width:107.459"
       d="m 389.64273,277.09303 c 0.008,-18.1885 4.05757,-60.23825 6.58523,-68.38776 0.55775,-1.79824 2.25921,-9.89034 3.78102,-17.98244 4.25528,-22.62702 9.27802,-42.50394 10.74041,-42.50394 0.71329,0 7.65737,1.19042 15.43127,2.64538 7.77391,1.45496 20.50997,3.44649 28.30236,4.42564 7.79239,0.97914 15.88449,2.21939 17.98244,2.75612 5.70933,1.46063 28.76105,3.25099 41.85796,3.25099 h 11.54443 v 63.75592 63.75592 h -68.11529 -68.1153 z"
       id="path14" />
    <path
       style="fill:#414141;stroke-width:107.459"
       d="m 386.91265,117.08855 c -12.57868,-3.58419 -20.77532,-6.23411 -21.7969,-7.0468 -0.59941,-0.47685 -6.2706,-2.81223 -12.60264,-5.18974 -12.79448,-4.80398 -28.26654,-12.068587 -28.26654,-13.272012 0,-1.042477 19.01748,-18.388222 24.52151,-22.365948 2.39766,-1.73277 5.50557,-4.307419 6.90647,-5.721441 1.4009,-1.414021 6.79563,-5.305743 11.98829,-8.64827 5.19266,-3.342528 9.68642,-6.406592 9.98613,-6.809034 0.805,-1.080945 9.40818,-5.939267 18.61145,-10.510116 4.44936,-2.209797 8.86337,-4.690371 9.80891,-5.51239 1.81352,-1.576609 21.50831,-9.638314 31.57355,-12.924058 3.26794,-1.0668 6.43213,-2.315135 7.03154,-2.774077 0.98573,-0.754729 12.1283,-4.326372 13.49713,-4.326372 0.31255,0 -1.1978,1.839113 -3.35634,4.086918 -6.85557,7.139037 -19.43469,22.443217 -22.46969,27.337382 -1.61091,2.597707 -4.20575,6.275933 -5.76631,8.173836 -1.56055,1.897902 -4.45889,6.393313 -6.44074,9.9898 -1.98185,3.596488 -5.8716,10.503066 -8.6439,15.347951 -2.77229,4.844886 -7.16664,14.653488 -9.76521,21.796895 -4.9151,13.511506 -7.82525,20.125736 -8.79794,19.996096 -0.31325,-0.0417 -3.0217,-0.77463 -6.01877,-1.62862 z"
       id="path15" />
    <path
       style="fill:#414141;stroke-width:107.459"
       d="m 240.72258,277.09303 c 1.39011,-22.56512 8.30587,-58.44041 13.50803,-70.07252 1.19403,-2.66987 2.78843,-6.81603 3.54312,-9.21369 2.43627,-7.74014 10.93293,-28.20873 12.42513,-29.93237 0.79666,-0.92022 3.52755,-5.84178 6.06865,-10.93681 2.54109,-5.09502 5.99745,-11.2254 7.68078,-13.62306 1.68334,-2.39765 5.09633,-7.63099 7.58443,-11.62964 2.4881,-3.99864 6.94313,-10.03495 9.90008,-13.41402 2.95694,-3.37906 5.37626,-6.61695 5.37626,-7.1953 0,-0.57835 1.10347,-0.35068 2.45215,0.50594 1.34868,0.85661 7.60167,3.83743 13.89552,6.62403 6.29385,2.78659 14.38595,6.47717 17.98244,8.20128 7.02078,3.36566 29.00155,10.82766 38.50064,13.07015 3.19292,0.75376 6.01405,1.92557 6.26918,2.60402 0.25514,0.67845 -1.05412,7.11871 -2.90946,14.31168 -10.02766,38.87627 -14.30539,69.15874 -16.89626,119.61046 l -0.65762,12.80568 h -62.72241 -62.72241 z"
       id="path16" />
  </g>
</svg>
