<?xml version="1.0" encoding="UTF-8" standalone="no"?>
<!-- Created with Inkscape (http://www.inkscape.org/) -->

<svg
   version="1.1"
   id="svg1"
   width="51.873562"
   height="118.25658"
   viewBox="0 0 51.873563 118.25658"
   sodipodi:docname="info.svg"
   inkscape:version="1.3.2 (091e20ef0f, 2023-11-25, custom)"
   xmlns:inkscape="http://www.inkscape.org/namespaces/inkscape"
   xmlns:sodipodi="http://sodipodi.sourceforge.net/DTD/sodipodi-0.dtd"
   xmlns="http://www.w3.org/2000/svg"
   xmlns:svg="http://www.w3.org/2000/svg">
  <defs
     id="defs1" />
  <sodipodi:namedview
     id="namedview1"
     pagecolor="#ffffff"
     bordercolor="#000000"
     borderopacity="0.25"
     inkscape:showpageshadow="2"
     inkscape:pageopacity="0.0"
     inkscape:pagecheckerboard="0"
     inkscape:deskcolor="#d1d1d1"
     inkscape:zoom="2.3106893"
     inkscape:cx="99.537399"
     inkscape:cy="53.23087"
     inkscape:window-width="1366"
     inkscape:window-height="724"
     inkscape:window-x="0"
     inkscape:window-y="20"
     inkscape:window-maximized="1"
     inkscape:current-layer="g1" />
  <g
     inkscape:groupmode="layer"
     inkscape:label="Image"
     id="g1"
     transform="translate(62.14185,-0.41280591)">
    <path
       style="fill:#414141;fill-opacity:1;stroke-width:21.3357"
       d="m -37.923434,118.57076 c -3.531715,-0.24063 -8.187251,-1.51577 -9.305052,-2.54862 -0.22735,-0.21008 -0.853774,-0.68384 -1.392053,-1.05282 -0.882326,-0.60481 -1.977962,-1.69698 -3.106707,-3.09687 -0.700506,-0.86879 -1.198193,-1.8253 -1.812395,-3.48328 -0.570776,-1.54076 -0.593691,-1.76212 -0.591536,-5.71418 0.0016,-2.988367 0.109707,-4.731909 0.395688,-6.383375 0.468667,-2.706431 1.626823,-7.592744 1.872007,-7.898077 0.09557,-0.119012 0.572475,-1.725675 1.059797,-3.570363 0.487321,-1.844688 1.092713,-4.132966 1.345315,-5.085063 0.252602,-0.952097 0.594636,-2.038729 0.760075,-2.414738 0.165439,-0.376011 0.895788,-3.10247 1.622996,-6.058798 0.727209,-2.95633 1.40675,-5.569892 1.510091,-5.807917 0.673833,-1.552028 1.119865,-6.340268 0.829571,-8.9056 -0.173907,-1.536819 -0.353553,-2.140405 -0.912226,-3.064961 -0.830002,-1.37358 -1.556151,-1.862824 -3.415248,-2.301027 -3.111445,-0.733391 -7.538304,-0.35608 -11.629797,0.991231 -0.751428,0.247442 -1.400396,0.415542 -1.442151,0.373557 -0.08109,-0.08154 0.58626,-2.887006 0.815982,-3.430316 0.07548,-0.178518 0.265321,-0.847157 0.421868,-1.485863 0.319359,-1.302977 0.02972,-1.130942 4.816319,-2.860711 1.071109,-0.387074 2.044844,-0.771579 2.163856,-0.854454 0.308508,-0.214832 4.713625,-1.636082 6.383377,-2.059507 4.526186,-1.147777 10.465334,-1.73244 12.333982,-1.214186 0.416543,0.115524 1.731085,0.414407 2.921206,0.664184 2.765859,0.580484 5.334008,1.801527 7.21158,3.428791 0.789544,0.684285 1.604662,1.438901 1.811375,1.676925 0.318278,0.366486 1.976895,3.558745 2.585856,4.97687 0.338367,0.787972 0.616979,2.741603 0.616979,4.326264 0,2.306604 -0.444816,7.326943 -0.670201,7.564128 -0.107437,0.113061 -0.195342,0.378311 -0.195342,0.589443 0,0.732839 -2.466853,10.432865 -2.805743,11.032595 -0.111624,0.197541 -0.509651,1.512084 -0.884504,2.921206 -0.374852,1.409123 -0.864796,3.243656 -1.088764,4.076741 -0.223968,0.833085 -0.56679,2.147627 -0.761827,2.921206 -0.195035,0.773579 -0.428746,1.50388 -0.519356,1.622892 -0.296621,0.389596 -1.691638,6.212597 -2.177261,9.088198 -0.529821,3.137315 -0.639773,7.243855 -0.23266,8.689475 0.139339,0.49477 0.568484,1.37081 0.953654,1.94675 0.899412,1.34488 2.332099,1.95242 5.256655,2.22911 2.744436,0.25965 5.557346,-0.0457 8.673596,-0.94141 2.283163,-0.65629 2.482949,-0.68237 2.385944,-0.31142 -0.05823,0.22266 -0.371346,1.59664 -0.695819,3.05328 l -0.589949,2.64843 -2.29638,0.82188 c -2.871658,1.02777 -4.427819,1.62066 -5.561081,2.11876 -3.113956,1.36865 -7.712954,2.52034 -10.749621,2.69194 -1.099019,0.0621 -2.38771,0.14116 -2.863758,0.17567 -0.476049,0.0345 -1.8478,-0.004 -3.048338,-0.086 z"
       id="path1" />
    <path
       style="fill:#414141;fill-opacity:1;stroke-width:21.3357"
       d="m -26.760634,27.354654 c -3.719517,-0.666016 -5.694379,-1.5858 -8.114462,-3.779284 -1.994146,-1.80743 -3.163193,-3.561711 -3.814156,-5.723554 -0.250855,-0.833085 -0.542057,-1.683782 -0.647117,-1.890438 -0.223489,-0.439608 -0.25989,-3.702781 -0.04372,-3.918954 0.08102,-0.08102 0.325054,-0.847242 0.542306,-1.702725 0.497391,-1.9585935 1.798274,-4.1659747 3.248545,-5.5122355 0.616615,-0.5723931 1.3235,-1.2497334 1.570857,-1.5052007 0.683229,-0.705634 3.717725,-2.1360205 5.406431,-2.54845793 1.914361,-0.46754995 5.605244,-0.4835552 7.549137,-0.0327363 3.796469,0.88046003 7.148904,3.42090943 9.13543,6.92275893 1.302192,2.2955032 1.659096,3.6225805 1.659096,6.1690185 0,2.759214 -0.472413,4.382207 -1.978092,6.795805 -1.934794,3.101465 -4.893314,5.314742 -8.347266,6.244612 -1.471353,0.396118 -5.073087,0.677265 -6.166991,0.481391 z"
       id="path2" />
  </g>
</svg>
