<?xml version="1.0" encoding="UTF-8" standalone="no"?>
<!-- Created with Inkscape (http://www.inkscape.org/) -->

<svg
   version="1.1"
   id="svg1"
   width="511.82391"
   height="487.43539"
   viewBox="0 0 511.82391 487.43539"
   sodipodi:docname="monitor.svg"
   inkscape:version="1.3.2 (091e20ef0f, 2023-11-25, custom)"
   xmlns:inkscape="http://www.inkscape.org/namespaces/inkscape"
   xmlns:sodipodi="http://sodipodi.sourceforge.net/DTD/sodipodi-0.dtd"
   xmlns="http://www.w3.org/2000/svg"
   xmlns:svg="http://www.w3.org/2000/svg">
  <defs
     id="defs1" />
  <sodipodi:namedview
     id="namedview1"
     pagecolor="#ffffff"
     bordercolor="#000000"
     borderopacity="0.25"
     inkscape:showpageshadow="2"
     inkscape:pageopacity="0.0"
     inkscape:pagecheckerboard="0"
     inkscape:deskcolor="#d1d1d1"
     inkscape:zoom="0.53710937"
     inkscape:cx="96.814546"
     inkscape:cy="368.64"
     inkscape:window-width="1366"
     inkscape:window-height="724"
     inkscape:window-x="0"
     inkscape:window-y="20"
     inkscape:window-maximized="1"
     inkscape:current-layer="g1" />
  <g
     inkscape:groupmode="layer"
     inkscape:label="Image"
     id="g1"
     transform="translate(-273.02039,-12.109691)">
    <path
       id="path1"
       style="fill:#414141;stroke-width:91.7879"
       d="M 529.0243 12.117503 C 319.94058 12.099908 332.55993 11.795873 316.48523 17.250316 C 306.95883 20.482805 300.25558 24.862906 292.33484 33.031566 C 282.05639 43.631773 276.84777 54.384992 274.51453 69.818675 C 273.10838 79.119914 272.38052 338.7706 273.75672 340.1468 C 274.27225 340.66233 274.69422 343.00026 274.69422 345.34016 C 274.69422 356.63219 282.19387 373.37193 291.71375 383.32844 C 300.76666 392.79655 309.70924 397.95446 323.56531 401.70149 C 327.40528 402.73991 363.26314 402.9713 528.45008 403.0218 C 725.26263 403.08202 728.80208 403.05186 735.90711 401.23469 C 757.43813 395.728 775.06086 378.28655 781.04969 356.55696 C 782.10519 352.72725 782.96961 347.61938 782.96961 345.20735 C 782.96961 342.79527 783.38925 340.56285 783.90125 340.24641 C 785.06484 339.52728 785.20082 77.603756 784.03797 76.885082 C 783.60111 76.615081 782.99721 73.343753 782.69812 69.61555 C 782.08283 61.945946 778.92251 51.965678 774.84852 44.832347 C 771.01195 38.114781 759.59476 26.626876 752.50672 22.351878 C 746.45864 18.704124 737.97839 15.72125 727.11609 13.418285 C 722.0863 12.351892 688.60896 12.130933 529.0243 12.117503 z M 505.14539 66.824535 C 506.08699 66.743828 506.83013 67.366144 508.54187 68.96516 C 510.12178 70.441016 511.41492 72.111049 511.41492 72.676097 C 511.41492 74.095905 503.93262 94.410272 502.96375 95.62141 C 502.53171 96.161488 500.25043 101.81786 497.89344 108.18977 C 491.29849 126.01848 489.76356 129.93019 488.92859 131.03157 C 488.50446 131.59102 485.64338 138.7132 482.57117 146.85774 C 479.49895 155.00227 476.40591 162.7125 475.69812 163.9925 C 474.99035 165.2725 472.80807 170.71745 470.84852 176.09211 C 465.91697 189.61831 462.63641 192.56558 457.84461 187.77375 C 455.45704 185.3862 454.97191 182.31686 456.40906 178.69758 C 456.87606 177.52149 458.20014 174.04691 459.35047 170.97493 C 460.50081 167.90293 462.58273 162.87505 463.97742 159.80305 C 465.3721 156.73105 468.47554 148.78044 470.87586 142.13313 C 473.27618 135.48583 475.58352 129.62058 476.00281 129.09993 C 476.69868 128.23578 480.71418 118.05118 487.02039 101.15657 C 488.35818 97.572567 489.95561 93.801658 490.56922 92.77766 C 491.18282 91.753662 493.23453 86.727728 495.12977 81.607738 C 499.50735 69.781642 499.75652 69.338854 502.98328 67.670238 C 503.94337 67.173753 504.58043 66.872959 505.14539 66.824535 z M 436.26453 90.494457 C 437.56984 90.50492 438.50787 91.431177 439.66687 92.904613 C 440.72803 94.253652 441.59656 96.21241 441.59656 97.258128 C 441.59656 98.462797 436.47913 104.31472 427.63172 113.22883 C 419.95173 120.96672 413.66883 127.68198 413.66883 128.15266 C 413.66883 128.62334 419.95173 135.3386 427.63172 143.07649 C 442.63781 158.19571 443.61463 159.91066 439.44227 163.83039 C 435.25955 167.75985 433.83345 166.87327 416.8407 149.76203 C 399.34687 132.14622 397.37644 129.69672 398.31531 126.7386 C 398.65944 125.65436 406.63882 117.04651 416.04773 107.60969 C 428.74307 94.8767 433.39286 90.471438 436.26453 90.494457 z M 537.16492 90.623363 C 539.20001 90.77811 542.77018 94.021527 556.22937 107.67805 C 565.62467 117.21109 573.65364 125.62141 574.07117 126.3675 C 574.48871 127.11359 574.59256 128.47431 574.30164 129.39094 C 574.01071 130.30757 566.04582 138.88638 556.60242 148.45539 C 538.05423 167.25032 536.62844 168.15098 532.89344 163.40266 C 531.83228 162.05362 530.96375 160.1725 530.96375 159.22297 C 530.96375 157.23395 536.31887 151.13271 549.55359 138.04524 C 554.68899 132.96698 558.89148 128.61056 558.89148 128.3636 C 558.89148 128.11665 552.80296 121.70182 545.36219 114.10969 C 537.92139 106.51756 531.58214 99.308927 531.27625 98.09016 C 530.54767 95.187249 533.62835 91.009855 536.77625 90.631175 C 536.90076 90.616197 537.02925 90.613046 537.16492 90.623363 z M 614.67859 153.75227 C 625.28268 153.75227 625.85962 153.85212 627.53406 155.98078 C 628.60119 157.33742 629.74075 161.25425 630.44422 165.9886 C 632.04287 176.74755 632.04141 176.7459 635.95594 177.47688 C 637.85844 177.83215 642.36957 179.48585 645.98133 181.15266 C 650.50571 183.24064 653.11228 183.95657 654.36023 183.45344 C 655.35646 183.05179 658.8744 180.39392 662.17859 177.54719 C 666.09927 174.16936 669.0166 172.37141 670.57703 172.37141 C 672.33438 172.37141 674.99838 174.41176 680.62781 180.07063 C 690.15562 189.64819 690.25013 190.41965 683.2118 200.99446 L 678.13758 208.61946 L 680.76062 214.46516 C 682.20274 217.68095 684.09934 222.51157 684.97742 225.19953 C 685.8555 227.88753 687.06412 230.08872 687.66297 230.09016 C 688.26182 230.09116 692.52177 230.53318 697.12977 231.07258 C 708.97005 232.45859 709.69812 233.36941 709.69812 246.79328 C 709.69812 260.15125 709.5234 260.36125 696.70008 262.49446 L 686.95984 264.11555 L 684.49305 271.07258 C 683.13616 274.89889 681.29906 279.75209 680.41102 281.85774 L 678.79578 285.68586 L 684.47156 293.34211 C 687.5936 297.55279 690.1493 301.76193 690.1493 302.69563 C 690.1493 306.87831 676.31228 320.6175 672.10047 320.6175 C 670.8839 320.6175 666.8027 318.57904 663.03016 316.08625 C 654.04683 310.15044 654.1286 310.17369 649.72352 312.32453 C 647.63725 313.34317 643.41661 315.06422 640.34461 316.14875 C 637.27261 317.23327 634.2867 318.41434 633.70789 318.77375 C 633.12909 319.13314 632.34965 323.09869 631.97742 327.58625 C 631.27331 336.07497 629.83786 340.23384 627.27039 341.21907 C 626.44157 341.53712 621.42358 341.79719 616.11805 341.79719 C 607.43544 341.79719 606.23449 341.58675 604.10633 339.70149 C 602.13755 337.95742 601.48386 336.01801 600.19617 328.10969 C 598.67053 318.74004 598.61052 318.60448 595.81531 317.99055 C 594.25696 317.64828 589.49565 315.90762 585.23328 314.12336 C 577.98406 311.08879 577.34836 310.97349 575.40125 312.34407 C 564.07145 320.31912 560.97469 322.24542 559.47547 322.24641 C 557.53166 322.24741 542.46573 308.00304 541.63172 305.37532 C 541.15319 303.86761 542.46493 300.17286 543.9032 298.97493 C 545.08605 297.98971 552.37391 286.99981 552.37391 286.20149 C 552.37391 285.73869 551.3793 283.29182 550.16297 280.76399 C 548.94663 278.23617 547.1656 273.86319 546.20594 271.04719 C 545.24628 268.23119 544.08068 265.65275 543.61609 265.31672 C 543.1515 264.9807 539.06739 264.41138 534.53992 264.05305 C 528.48017 263.57344 525.69447 262.92014 523.98133 261.57258 C 521.73144 259.80281 521.65516 259.37165 521.65516 248.63703 C 521.65516 235.99027 522.40544 234.38701 528.81727 233.33235 C 530.76579 233.01183 535.00545 232.25476 538.23914 231.65071 L 544.11805 230.55305 L 546.40906 223.71907 C 547.66872 219.9605 549.55117 215.21562 550.59266 213.17414 L 552.48719 209.46125 L 546.29773 201.85383 C 538.17449 191.8696 538.27935 190.98992 548.81727 180.8011 C 553.47203 176.30051 557.34094 173.30982 558.51258 173.30696 C 559.58495 173.30396 561.67927 174.36631 563.16687 175.66828 C 564.6545 176.97028 568.28859 179.52009 571.24109 181.33235 L 576.60828 184.62727 L 584.2743 181.35188 C 588.48971 179.55089 593.07409 177.79947 594.46375 177.4593 C 595.8534 177.11912 597.2161 176.13236 597.49109 175.26594 C 597.97624 173.73736 599.76324 160.98616 599.82117 158.64094 C 599.83697 158.00094 600.6878 156.63955 601.7118 155.61555 C 603.36545 153.96186 604.8165 153.75227 614.67859 153.75227 z M 615.63758 214.28547 C 612.68101 214.2671 609.54014 214.53655 608.44812 215.10969 C 607.55911 215.57629 604.81785 216.66771 602.35437 217.53547 C 595.20085 220.05531 590.69094 224.16365 586.53016 231.94953 C 583.3462 237.90751 582.73636 239.97948 582.36609 246.0843 C 581.96814 252.6454 582.17572 253.75957 584.87586 259.52961 C 588.8066 267.92945 593.19509 273.08566 599.00086 276.12141 C 606.90565 280.25474 614.41057 281.17324 623.26062 279.09016 C 644.26672 274.14587 654.09853 251.38576 643.91883 231.26594 C 640.43136 224.37311 629.65956 216.12336 624.14734 216.12336 C 623.13315 216.12336 622.04385 215.70564 621.72742 215.19368 C 621.36763 214.61152 618.59411 214.30384 615.63758 214.28547 z " />
    <path
       style="fill:#414141;stroke-width:91.7879"
       d="m 371.50789,499.24547 c -3.70612,-0.61624 -9.57889,-5.15811 -11.84667,-9.16197 -4.83923,-8.54384 -0.0368,-21.18802 9.00102,-23.69875 1.97548,-0.54879 21.99257,-0.92192 49.62384,-0.92501 l 46.31272,-0.005 v -18.15292 -18.15273 h 64.23273 64.23273 v 18.15273 18.15273 l 46.31272,0.005 c 27.63127,0.003 47.64835,0.37622 49.62384,0.92501 6.06092,1.68374 11.1343,9.22089 11.10267,16.49444 -0.0211,4.83946 -3.3952,10.37111 -8.37835,13.73561 l -4.17361,2.81793 -156.85818,0.0999 c -86.272,0.0549 -157.90546,-0.0743 -159.18546,-0.28711 z"
       id="path2" />
  </g>
</svg>
