<?xml version="1.0" encoding="UTF-8" standalone="no"?>
<!-- Created with Inkscape (http://www.inkscape.org/) -->

<svg
   version="1.1"
   id="svg1"
   width="429.12677"
   height="544.34882"
   viewBox="0 0 429.12677 544.34882"
   sodipodi:docname="shopping-bag.svg"
   inkscape:version="1.3.2 (091e20ef0f, 2023-11-25, custom)"
   xmlns:inkscape="http://www.inkscape.org/namespaces/inkscape"
   xmlns:sodipodi="http://sodipodi.sourceforge.net/DTD/sodipodi-0.dtd"
   xmlns="http://www.w3.org/2000/svg"
   xmlns:svg="http://www.w3.org/2000/svg">
  <defs
     id="defs1" />
  <sodipodi:namedview
     id="namedview1"
     pagecolor="#ffffff"
     bordercolor="#000000"
     borderopacity="0.25"
     inkscape:showpageshadow="2"
     inkscape:pageopacity="0.0"
     inkscape:pagecheckerboard="0"
     inkscape:deskcolor="#d1d1d1"
     inkscape:zoom="0.25177003"
     inkscape:cx="-468.68167"
     inkscape:cy="564.00675"
     inkscape:window-width="1366"
     inkscape:window-height="724"
     inkscape:window-x="0"
     inkscape:window-y="20"
     inkscape:window-maximized="1"
     inkscape:current-layer="g1" />
  <g
     inkscape:groupmode="layer"
     inkscape:label="Image"
     id="g1"
     transform="translate(-636.04407,-1.7681852)">
    <path
       style="fill:#414141;stroke-width:97.9071"
       d="m 723.1029,545.29022 c -0.28658,-0.4637 -4.22277,-1.10996 -8.74709,-1.43616 -9.67001,-0.69719 -23.19562,-4.42537 -31.85532,-8.78055 -3.38789,-1.70386 -6.38322,-3.41425 -6.65629,-3.80085 -0.27307,-0.38662 -3.94902,-3.24328 -8.1688,-6.34817 -4.21977,-3.10487 -8.13885,-6.51697 -8.70907,-7.58242 -0.57021,-1.06546 -3.2124,-4.5515 -5.87152,-7.74676 -10.91297,-13.11327 -17.13173,-32.26925 -17.04994,-52.5199 0.0496,-12.26956 11.52756,-170.15301 12.98026,-178.54743 0.56707,-3.2768 3.24434,-35.89585 5.94948,-72.48678 3.64621,-49.32024 5.35289,-67.8132 6.59805,-71.49381 0.92378,-2.73067 1.94348,-5.18827 2.266,-5.46134 0.32251,-0.27306 2.14739,-2.5047 4.05528,-4.95919 5.27316,-6.78388 9.5993,-10.19356 16.27577,-12.82784 5.7683,-2.27595 7.42825,-2.41846 33.13098,-2.84435 l 27.05842,-0.44836 v 37.87843 c 0,43.05089 -0.0193,42.92467 7.19601,47.1531 8.79875,5.15641 19.21228,2.8292 24.02884,-5.36995 1.9452,-3.31127 2.05408,-5.23056 2.35166,-41.45311 l 0.31203,-37.98109 h 72.35921 72.35921 l 0.31203,37.98109 c 0.29758,36.22255 0.40646,38.14184 2.35166,41.45311 4.81656,8.19915 15.23009,10.52636 24.02884,5.36995 7.21528,-4.22843 7.19601,-4.10221 7.19601,-47.1531 v -37.87843 l 27.05842,0.44836 c 25.70277,0.42589 27.36267,0.5684 33.13097,2.84435 6.6765,2.63428 11.0026,6.04396 16.2758,12.82784 1.9079,2.45449 3.7327,4.68613 4.0553,4.95919 2.9029,2.45783 4.1622,13.31344 8.8458,76.25075 2.6942,36.2035 5.1261,66.19284 5.4043,66.64297 0.9092,1.47118 13.5323,175.05949 13.5456,186.27572 0.022,18.84465 -6.517,38.68083 -16.8423,51.088 -2.7744,3.33376 -5.5109,6.93312 -6.0811,7.99858 -0.5702,1.06545 -4.4893,4.47755 -8.7091,7.58242 -4.2198,3.10489 -7.8957,5.96155 -8.1688,6.34817 -0.2731,0.3866 -3.2684,2.09699 -6.6563,3.80085 -8.6597,4.35518 -22.18528,8.08336 -31.8553,8.78055 -4.52431,0.3262 -8.4605,0.97246 -8.74708,1.43616 -0.68128,1.10235 -254.32664,1.10235 -255.00792,0 z M 834.80594,381.12136 c 2.34758,-0.81837 16.59794,-14.42332 47.23323,-45.09402 24.12924,-24.15713 44.35465,-44.82511 44.94534,-45.92883 1.6117,-3.0115 1.29277,-11.8023 -0.57066,-15.72919 -2.60104,-5.48128 -8.17268,-8.58416 -15.2936,-8.51708 -3.92448,0.037 -6.8394,0.6507 -8.61446,1.81377 -1.47558,0.96683 -18.74719,17.8007 -38.38134,37.40858 L 828.426,340.72528 813.94746,326.36562 c -7.9632,-7.89782 -15.45455,-14.85453 -16.64744,-15.45938 -1.19289,-0.60484 -4.48333,-1.09971 -7.31207,-1.09971 -10.10413,0 -16.83272,6.7222 -16.83272,16.81674 0,2.81997 0.64043,6.33382 1.42318,7.80857 2.31655,4.3645 44.42009,45.54353 47.72882,46.68079 4.0785,1.40184 8.49359,1.40492 12.49871,0.009 z"
       id="path1" />
    <path
       style="fill:#414141;stroke-width:97.9071"
       d="m 746.66138,97.062782 c 0.58365,-9.650302 1.66776,-15.652692 3.63171,-20.107635 0.48153,-1.092267 1.8136,-4.605764 2.96016,-7.807771 7.28721,-20.351059 21.33112,-37.805694 40.97241,-50.923075 14.36101,-9.5909547 29.15924,-14.6286647 47.19623,-16.0668436 24.54414,-1.95702625 46.71203,3.475168 65.56617,16.0668436 19.64129,13.117381 33.6852,30.572016 40.97241,50.923075 1.14657,3.202007 2.46287,6.715504 2.92512,7.807771 2.28352,5.395757 3.11356,9.825674 3.67456,19.61115 l 0.61195,10.674423 h -14.90853 -14.90853 l -0.51137,-8.688483 c -0.41928,-7.123727 -1.25706,-10.566193 -4.65187,-19.114666 -4.05542,-10.211954 -7.42003,-16.385053 -11.09484,-20.355878 -1.01084,-1.092266 -3.20982,-3.631076 -4.88663,-5.641799 -2.85689,-3.425816 -9.24251,-8.290142 -17.68901,-13.47482 -2.00362,-1.229876 -7.21764,-3.44475 -11.5867,-4.921944 -7.3635,-2.489619 -9.14055,-2.685807 -24.32776,-2.685807 -15.18721,0 -16.96426,0.196188 -24.32776,2.685807 -4.36906,1.477194 -9.58308,3.692068 -11.5867,4.921944 -8.3874,5.148404 -14.83021,10.043248 -17.73615,13.47482 -1.70273,2.010723 -4.42603,5.203602 -6.05176,7.095286 -6.6923,7.787061 -13.68288,26.153916 -14.46962,38.017057 l -0.57619,8.688483 h -14.90643 -14.90642 z"
       id="path2" />
  </g>
</svg>
