<?xml version="1.0" encoding="UTF-8" standalone="no"?>
<!-- Created with Inkscape (http://www.inkscape.org/) -->

<svg
   width="951.32208mm"
   height="875.85962mm"
   viewBox="0 0 951.32204 875.85964"
   version="1.1"
   id="svg1"
   xml:space="preserve"
   inkscape:version="1.3.2 (091e20ef0f, 2023-11-25, custom)"
   sodipodi:docname="logo.svg"
   xmlns:inkscape="http://www.inkscape.org/namespaces/inkscape"
   xmlns:sodipodi="http://sodipodi.sourceforge.net/DTD/sodipodi-0.dtd"
   xmlns="http://www.w3.org/2000/svg"
   xmlns:svg="http://www.w3.org/2000/svg"><sodipodi:namedview
     id="namedview1"
     pagecolor="#ffffff"
     bordercolor="#000000"
     borderopacity="0.25"
     inkscape:showpageshadow="2"
     inkscape:pageopacity="0.0"
     inkscape:pagecheckerboard="0"
     inkscape:deskcolor="#d1d1d1"
     inkscape:document-units="mm"
     inkscape:zoom="0.043307562"
     inkscape:cx="-2297.5202"
     inkscape:cy="692.71966"
     inkscape:window-width="1366"
     inkscape:window-height="724"
     inkscape:window-x="0"
     inkscape:window-y="20"
     inkscape:window-maximized="1"
     inkscape:current-layer="layer1" /><defs
     id="defs1" /><g
     inkscape:label="Layer 1"
     inkscape:groupmode="layer"
     id="layer1"
     transform="translate(485.75484,-25.347288)"><path
       id="path7"
       style="fill:#414141;fill-opacity:1;stroke-width:189.653"
       d="m 437.21874,25.347297 -871.71098,1.397507 c -7.36877,0.01166 -15.11961,2.703247 -20.86119,7.321896 -5.41217,4.353631 -10.95092,10.782212 -10.95092,17.728073 V 419.34702 c 0,6.8254 -14.31863,19.81871 -17.37119,33.88207 -2.29819,10.58788 -3.04508,27.70551 -0.40564,38.21359 3.35671,13.36523 10.55703,26.21342 20.17374,36.08352 8.51454,8.7398 19.27622,18.6898 31.47769,18.6898 h 51.3134 v 39.43075 h -30.59493 c -13.32528,0 -26.41489,8.24047 -35.88816,17.61167 -9.62798,9.52345 -18.29162,22.73212 -18.29162,36.27507 v 231.86245 c 0,7.73843 3.36247,17.64825 10.46254,20.72597 0,0 11.31928,7.6935 17.77691,7.70505 l 768.96744,1.37988 c 7.70934,0.0153 15.58792,-3.79437 21.33451,-8.93349 5.19459,-4.64545 10.17538,-11.29647 10.16949,-18.26531 l -0.26607,-316.72597 c 0,0 0.79364,-6.24289 3.9546,-9.40486 3.368,-3.36895 10.32165,-3.99619 10.32165,-3.99619 l 28.71359,0.0509 c 0,0 31.89469,-7.79827 37.67653,-13.57538 4.96058,-4.95652 16.62997,-16.17737 20.22697,-29.60157 3.57773,-13.35238 1.54503,-42.05866 1.54503,-42.05866 0.36204,-12.79411 -5.99935,-26.86707 -14.59815,-36.34765 -10.69655,-11.79335 -25.45122,-23.87409 -41.37304,-23.87409 h -54.02567 l 1.54024,-53.43968 h 48.7024 c 13.8413,0 27.66529,-7.3191 38.1873,-16.31179 10.27149,-8.77858 21.53363,-20.8287 21.53363,-34.34034 V 52.553631 c 0,-5.796164 -3.46142,-10.866134 -7.71632,-15.582968 C 453.66086,33.000091 443.1627,25.337767 437.2191,25.347297 Z m -855.15124,49.5552 h 249.83464 l -0.31188,121.741033 c 0,0 -8.46618,-3.52589 -12.72778,-5.21813 -6.43452,-2.55504 -12.7475,-5.48429 -19.38485,-7.45338 -7.26225,-2.15446 -14.6888,-3.99972 -22.22861,-4.72973 0,0 -15.06087,-2.19395 -22.64568,-2.19395 h -172.53592 z m 292.92073,0.386968 H 415.89171 V 177.68699 h -540.90348 z m -171.3338,152.163125 c 18.82058,0.16061 36.73671,0.58951 51.05417,1.44635 9.20546,0.5509 18.47649,1.25571 27.4693,3.29843 24.51125,5.56772 49.11366,12.61929 71.40443,24.23475 21.72686,11.32159 41.75689,26.34747 59.236323,43.51436 13.807358,13.56041 25.523046,29.40802 35.208231,46.16286 9.580882,16.57437 22.187326,52.97384 22.187326,52.97384 0,0 10.845295,-37.78834 22.0370763,-56.44133 9.1705518,-15.28433 23.1992697,-31.45719 36.9925737,-45.19737 12.452275,-12.40411 25.997335,-23.97521 40.933521,-33.23966 15.799562,-9.79993 33.135489,-17.17371 50.734809,-23.16784 17.5935,-5.99216 35.72904,-12.6114 54.315,-12.6114 h 239.80793 v 65.45751 H 311.58197 v 402.57634 l -69.57863,0.35694 V 294.12725 c 0,0 -16.74862,-0.49469 -25.10256,0 -15.52266,0.91917 -31.21621,1.82484 -46.32441,5.50364 -16.39274,3.99154 -32.55193,9.76173 -47.38381,17.8032 -14.91997,8.08916 -29.171733,18.0115 -41.012393,30.17041 -12.680977,13.02182 -23.131889,28.44627 -31.135868,44.76534 -7.287126,14.85756 -11.573794,31.71098 -14.061491,48.0713 -2.305688,15.16403 -2.227389,30.21476 0.492147,45.31007 3.096768,17.1892 8.317616,34.25302 16.003695,49.78812 6.691286,13.52441 15.754399,25.99554 26.019209,37.06405 10.167084,10.96312 22.087651,20.38522 34.671001,28.46111 14.15294,9.0831 29.46797,16.57327 45.34384,22.11964 11.32771,3.95736 35.14062,7.79528 35.14062,7.79528 v 67.53496 c 0,0 -22.59456,-1.69662 -33.68296,-3.88445 -12.25504,-2.41798 -24.29249,-5.99965 -36.06854,-10.16578 C 110.64455,679.42017 96.447549,673.88688 83.209491,666.57453 70.707866,659.66894 58.912196,651.38731 47.944988,642.23834 38.295787,634.18891 29.725492,624.89222 21.317167,615.55425 13.945853,607.36786 6.4589742,599.15415 0.4897808,589.8957 -6.4634399,579.11075 -11.710942,567.27542 -16.719875,555.46136 c -5.739248,-13.53654 -14.647521,-41.60594 -14.647521,-41.60594 0,0 -7.005478,29.4829 -13.035876,43.29647 -6.004739,13.75465 -13.923956,26.72184 -22.792172,38.82967 -10.162074,13.87451 -21.79279,26.78121 -34.539486,38.32629 -13.8365,12.53202 -28.77349,24.15605 -45.10351,33.20216 -16.40338,9.08688 -34.32721,15.37281 -52.30137,20.7184 -14.87127,4.42277 -30.09178,9.29044 -45.60686,9.29044 h -171.56294 v -65.93838 h 80.86389 V 294.06715 l -82.21257,0.31557 0.2479,-65.48378 c 0,0 64.60337,-1.92834 121.06477,-1.44635 z m 191.95086,0.21788 149.567235,0.11262 c 0,0 -23.354109,10.98746 -33.65672,18.61843 -10.4706828,7.75566 -19.9998623,16.97608 -28.070362,27.20634 -5.364119,6.7996 -13.242495,22.35262 -13.242495,22.35262 0,0 -11.213062,-17.53929 -18.085001,-25.30166 -8.641406,-9.76112 -18.37661,-18.64178 -28.829262,-26.43245 -8.621253,-6.42585 -27.683395,-16.55598 -27.683395,-16.55598 z m -160.96518,66.73856 v 335.69131 c 0,0 18.22722,-1.78538 27.14245,-3.77554 11.11916,-2.48211 22.16525,-5.65724 32.64231,-10.1319 10.72178,-4.57908 20.8955,-10.48734 30.59122,-16.96177 10.24576,-6.84164 20.11516,-14.39242 28.94194,-22.98751 8.59959,-8.37376 16.44162,-17.63156 23.13778,-27.59325 6.75627,-10.05107 12.71455,-20.786 16.96168,-32.12765 4.59789,-12.27838 7.436512,-25.27142 9.001177,-38.28873 1.40975,-11.72861 1.762622,-23.71564 0.296601,-35.43736 -1.453364,-11.62161 -5.002658,-22.95341 -8.941048,-33.98351 -4.18563,-11.72249 -8.99856,-23.35818 -15.51908,-33.96095 -6.35688,-10.33664 -14.04877,-19.95783 -22.72456,-28.44232 -8.75881,-8.56566 -18.87545,-15.72697 -29.21615,-22.29627 -9.92232,-6.30344 -20.37971,-11.88472 -31.27864,-16.28922 -10.98576,-4.4396 -22.48488,-7.67914 -34.08499,-10.09437 -8.86116,-1.845 -26.95082,-3.32096 -26.95082,-3.32096 z m -152.24205,50.49813 h 34.99035 v 55.62611 h -34.99035 z m 198.96461,12.08921 c 0,0 31.85289,20.14493 44.04411,34.16757 9.91555,11.40515 17.72544,25.01541 22.54049,39.34061 5.27855,15.70553 7.92918,32.8056 6.35637,49.29974 -1.07979,11.32402 -2.79719,30.6809 -8.69585,40.40654 -6.6995,11.04602 -14.01577,20.52136 -23.028,29.77759 -11.17651,11.47919 -39.52276,24.43158 -39.52276,24.43158 z m 413.2756,80.1088 0.13155,65.08557 c 0,0 -55.81089,-0.0641 -91.17993,-0.0641 -12.116627,0 -18.756804,-22.46959 -18.122532,-34.56956 0.573582,-10.94859 7.218922,-30.41835 18.182652,-30.41835 31.6017,0 90.9883,-0.0342 90.9883,-0.0342 z m -601.60859,4.05351 c 16.50246,10e-4 29.88002,13.37871 29.88111,29.88115 9.6e-4,16.50389 -13.3772,29.88379 -29.88111,29.88488 -16.50536,9.9e-4 -29.88583,-13.37952 -29.88488,-29.88488 0.001,-16.50393 13.38097,-29.88213 29.88488,-29.88115 z m 793.71342,0.95047 c 16.50246,10e-4 29.88002,13.37869 29.88111,29.88113 9.5e-4,16.50389 -13.37719,29.88379 -29.88111,29.88488 -16.50537,9.9e-4 -29.88583,-13.37952 -29.88489,-29.88488 0.001,-16.50391 13.38098,-29.88212 29.88489,-29.88113 z m -428.313795,190.1663 c 0,0 5.853246,10.25542 9.012386,15.24116 4.692026,7.40466 9.531206,14.72907 14.75278,21.77034 5.104958,6.88385 10.2276396,13.81279 16.1765459,19.98212 6.115677,6.34233 12.8222211,12.15856 19.9257121,17.37111 6.307228,4.62822 20.019709,12.24705 20.019709,12.24705 0,0 -8.769209,1.61599 -13.182437,2.23902 -4.318809,0.6092 -9.738187,1.66004 -14.017742,1.66004 -2.9036879,0.59538 -24.919941,0.3235 -38.816708,0.3235 -0.828174,0 -0.342413,11.66198 -0.342413,12.17936 V 847.96892 H -417.71485 V 745.53374 l 187.24363,0.64264 c 0,0 23.63814,-2.29221 35.2946,-4.4743 10.65416,-1.99431 21.29372,-4.36802 31.55663,-7.85531 11.6542,-3.96013 22.95319,-9.02954 33.84822,-14.75649 9.72451,-5.11158 19.20404,-10.81157 27.98028,-17.42004 7.932891,-5.9734 14.99596,-13.03707 22.119642,-19.95581 5.191325,-5.04201 10.281827,-10.20804 15.008252,-15.68819 4.56409,-5.29186 8.917853,-10.78648 12.855511,-16.55966 3.758019,-5.50967 10.23718,-17.1909 10.23718,-17.1909 z m 56.32109,114.27642 H 313.80985 V 848.94569 H 14.750395 Z"
       sodipodi:nodetypes="ccssssscsccscsscsssscsccsssssccsssssccccsscscccccccccsssscsssssccccccsssssssssssccssssssscssssssccccccscccscsscccccsssssssssssscccccscscsscccssssscssssscssscccccccsssscccsssssssscccccccccccc" /><text
       xml:space="preserve"
       style="font-size:97.0148px;line-height:1.3;font-family:'Droid Serif';-inkscape-font-specification:'Droid Serif';text-align:center;text-anchor:middle;fill:#414141;fill-opacity:1;stroke-width:119.571"
       x="142.04549"
       y="161.60387"
       id="text9"><tspan
         sodipodi:role="line"
         id="tspan9"
         style="font-style:normal;font-variant:normal;font-weight:bold;font-stretch:normal;font-family:'DejaVu Sans';-inkscape-font-specification:'DejaVu Sans Bold';stroke-width:119.571"
         x="142.04547"
         y="161.60387">DREAME</tspan></text><text
       xml:space="preserve"
       style="font-size:97.0148px;line-height:1.3;font-family:'Droid Serif';-inkscape-font-specification:'Droid Serif';text-align:center;text-anchor:middle;fill:#414141;fill-opacity:1;stroke-width:119.571"
       x="-217.90657"
       y="826.50854"
       id="text9-4"><tspan
         sodipodi:role="line"
         id="tspan9-5"
         style="font-style:normal;font-variant:normal;font-weight:bold;font-stretch:normal;font-family:'DejaVu Sans';-inkscape-font-specification:'DejaVu Sans Bold';stroke-width:119.571"
         x="-217.90657"
         y="826.50854">CODE</tspan></text><text
       xml:space="preserve"
       style="font-size:67.5748px;line-height:1.3;font-family:'Droid Serif';-inkscape-font-specification:'Droid Serif';text-align:center;text-anchor:middle;fill:#414141;fill-opacity:1;stroke-width:83.2865"
       x="167.46162"
       y="825.75842"
       id="text9-4-7"><tspan
         sodipodi:role="line"
         id="tspan9-5-4"
         style="font-style:normal;font-variant:normal;font-weight:bold;font-stretch:normal;font-family:'DejaVu Sans';-inkscape-font-specification:'DejaVu Sans Bold';stroke-width:83.2865"
         x="167.46162"
         y="825.75842">TEAME</tspan></text></g></svg>
